<svg fill="none" viewBox="0 0 180 180" xmlns="http://www.w3.org/2000/svg" xmlns:xlink="http://www.w3.org/1999/xlink"><mask id="a"><path d="m0 0h180v180h-180z" fill="#fff"/></mask><mask id="b" height="58" maskUnits="userSpaceOnUse" width="138" x="21" y="6"><g fill="#fff"><rect height="22" rx="2" width="16" x="21" y="35"/><rect height="22" rx="2" width="23" x="136" y="42"/><rect height="18" rx="2" width="23" x="136" y="6"/></g></mask><mask id="c" height="53" maskUnits="userSpaceOnUse" width="36" x="37" y="0"><g fill="#fff"><path clip-rule="evenodd" d="m43.8.11a20 20 0 1 0 28.28 28.29" fill-rule="evenodd"/><circle cx="67.13" cy="5.06" r="4" transform="matrix(.70710678 .70710678 -.70710678 .70710678 23.239882 -45.986039)"/><path d="m64.31 6.48h2v26h-2z" transform="matrix(.70710678 .70710678 -.70710678 .70710678 23.415086 -43.569018)"/><path d="m47.94 28.11h4v24h-4z"/></g></mask><mask id="d" height="120" maskUnits="userSpaceOnUse" width="130" x="0" y="0"><path clip-rule="evenodd" d="m0 18a18 18 0 0 1 18-18h94a18 18 0 0 1 18 18v27.15a40 40 0 0 1 -2.28 13.31l-17.48 49.54a18 18 0 0 1 -16.98 12h-56.52a18 18 0 0 1 -16.98-12l-17.48-49.55a40 40 0 0 1 -2.28-13.3z" fill="#fff" fill-rule="evenodd"/></mask><g mask="url(#a)"><g transform="translate(0 66)"><path d="m38 12c-2.95 11.7-19.9 6.67-23.37 18-3.46 11.35 8.03 20 17.53 20" opacity=".9" stroke="#2a3544" stroke-width="6"/><path d="m150 55c8.4 3.49 20.1-7.6 16-16.5s-16-6.7-16-19.3" opacity=".9" stroke="#2a3544" stroke-width="4"/><g mask="url(#b)"><path d="m0 0h180v76h-180z" fill="#039be5"/><path d="m0 0h180v76h-180z" fill="#fff" fill-opacity=".3"/></g></g><g mask="url(#c)" transform="translate(41)"><path d="m0 0h100v52h-100z" fill="#90a4ae"/><g fill="#fff"><path d="m0 0h100v52h-100z" fill-opacity=".3"/><path clip-rule="evenodd" d="m43.8.11a20 20 0 1 0 28.28 28.29" fill-opacity=".2" fill-rule="evenodd"/><circle cx="67.13" cy="7.41" fill-opacity=".8" r="5.66" transform="matrix(.70710678 .70710678 -.70710678 .70710678 24.894512 -45.300668)"/></g></g><g mask="url(#d)" transform="translate(25 44)"><path d="m-2-2h134v124h-134z" fill="#039be5"/></g><g fill="#000" fill-opacity=".6" transform="translate(52 124)"><rect height="14" rx="2" width="6" x="28" y="10"/><rect height="14" rx="2" width="6" x="14" y="10"/><rect height="14" rx="2" width="6" x="42" y="10"/><rect height="14" rx="2" width="6" x="56" y="10"/></g><g transform="translate(38 76)"><rect fill="#000" fill-opacity=".8" height="34" rx="17" width="104" y="11"/><circle cx="29" cy="28" fill="#f1eeda" r="13"/><circle cx="75" cy="28" fill="#f1eeda" r="13"/><g fill="#000" fill-opacity=".8"><rect height="10" rx="2" width="10" x="24" y="23"/><rect height="10" rx="2" width="10" x="70" y="23"/></g></g></g></svg>